<svg width="264" height="245" xmlns="http://www.w3.org/2000/svg" xmlns:xlink="http://www.w3.org/1999/xlink" xml:space="preserve" overflow="hidden"><defs><clipPath id="clip0"><rect x="508" y="204" width="264" height="245"/></clipPath></defs><g clip-path="url(#clip0)" transform="translate(-508 -204)"><path d="M40.9293 281.707C40.79 282.454 40.7103 282.633 40.352 282.663 39.1377 282.753 38.9983 282.723 38.9983 286.525L38.9983 300.719C38.9983 300.988 39.0282 301.197 39.4164 301.227 40.0534 301.286 41.427 301.346 42.4721 301.286 46.6526 301.047 46.9612 300.181 48.1158 297.474 48.2552 297.146 48.7728 297.295 48.6633 297.683L47.3693 302.501C47.3096 302.68 47.23 302.829 46.8716 302.799 46.0753 302.74 44.6121 302.65 42.5517 302.65L35.2856 302.65C34.9571 302.65 34.8476 302.381 35.206 302.202 36.2013 301.724 36.3606 301.455 36.3606 298.041L36.3606 287.152C36.3606 282.723 36.3108 282.783 34.8775 282.663 34.5192 282.633 34.4893 282.275 34.5988 281.707L40.9293 281.707Z" fill="#000000" fill-rule="nonzero" fill-opacity="1" transform="matrix(1 0 0 1.00585 508 204.386)"/><path d="M52.7044 295.802C52.7044 291.93 55.3223 288.695 59.015 288.695 62.6481 288.695 65.0469 291.701 65.0469 295.802 65.0469 299.664 62.459 302.909 58.7662 302.909 54.7748 302.909 52.7044 299.614 52.7044 295.802M62.3794 296.22C62.3794 293.035 61.0058 289.82 58.6368 289.82 56.0986 289.82 55.3621 292.199 55.3621 295.384 55.3621 298.509 56.7158 301.754 58.9454 301.754 61.5731 301.754 62.3794 299.674 62.3794 296.22" fill="#000000" fill-rule="nonzero" fill-opacity="1" transform="matrix(1 0 0 1.00585 508 204.386)"/><path d="M68.5904 289.79C68.6999 289.193 68.7596 289.013 69.118 289.013L74.0749 289.013C73.8559 289.641 73.826 289.79 73.5473 289.79 72.3927 289.79 72.3927 290.059 72.8605 291.253L75.9959 299.465 79.0816 291.253C79.5792 289.969 79.3005 289.79 77.8672 289.79 77.9767 289.193 78.0563 289.013 78.4147 289.013L81.998 289.013C81.8088 289.641 81.6695 289.79 81.3908 289.79 80.8931 289.79 80.7339 290.059 80.4552 290.775L75.9063 302.55C75.7371 302.998 75.2992 302.968 74.692 302.939L70.0636 291.134C69.6654 290.088 69.5559 289.82 68.5904 289.79" fill="#000000" fill-rule="nonzero" fill-opacity="1" transform="matrix(1 0 0 1.00585 508 204.386)"/><path d="M87.9801 295.473C87.9502 298.659 89.5826 301.187 92.1108 301.187 93.7333 301.187 94.6192 300.53 95.4951 299.763 95.7738 299.525 95.9629 299.734 95.8235 300.062 95.296 301.227 93.8428 302.949 91.2747 302.949 87.8606 302.949 85.3523 300.54 85.3523 295.931 85.3523 292.418 87.9403 288.765 90.9164 288.765 93.2555 288.765 94.1115 289.541 94.7983 290.248 95.5946 291.084 96.0624 292.477 96.2018 294.239 96.2615 294.956 96.2018 295.254 95.5648 295.284 92.3597 295.414 89.8812 295.384 87.9801 295.473M93.5641 293.99C93.5641 291.671 92.6583 289.83 91.006 289.83 89.1347 289.83 87.9502 291.88 87.9502 294.468L93.5641 293.99Z" fill="#000000" fill-rule="nonzero" fill-opacity="1" transform="matrix(1 0 0 1.00585 508 204.386)"/><path d="M112.785 301.694C114.019 301.396 114.078 301.366 114.078 297.265L114.078 287.092C114.078 283.22 114.049 283.191 113.203 282.902 112.595 282.693 112.456 282.514 112.486 281.707 114.387 282.066 116.786 281.737 119.234 281.707 123.943 281.648 126.371 284.773 126.371 287.391 126.371 290.248 124.142 292.776 120.668 293.134 124.331 296.29 124.908 300.301 128.382 302.182 128.77 302.391 128.79 302.66 128.322 302.66 126.53 302.66 124.958 302.988 123.644 301.376 121.444 298.698 120.419 294.946 117.503 292.686 117.313 292.537 117.333 292.238 117.582 292.238 121.524 292.238 123.694 290.845 123.534 287.54 123.375 284.385 121.384 282.424 116.736 283.41L116.736 296.588C116.736 301.525 116.736 301.555 118.996 301.704 118.777 302.481 118.637 302.66 118.249 302.66L112.217 302.66C112.317 301.933 112.396 301.784 112.785 301.694" fill="#000000" fill-rule="nonzero" fill-opacity="1" transform="matrix(1 0 0 1.00585 508 204.386)"/><path d="M131.915 295.802C131.915 291.93 134.533 288.695 138.216 288.695 141.849 288.695 144.248 291.701 144.248 295.802 144.248 299.664 141.66 302.909 137.967 302.909 133.986 302.909 131.915 299.614 131.915 295.802M141.58 296.22C141.58 293.035 140.207 289.82 137.838 289.82 135.3 289.82 134.563 292.199 134.563 295.384 134.563 298.509 135.917 301.754 138.146 301.754 140.784 301.754 141.58 299.674 141.58 296.22" fill="#000000" fill-rule="nonzero" fill-opacity="1" transform="matrix(1 0 0 1.00585 508 204.386)"/><path d="M158.183 302.909C157.088 302.909 155.924 302.64 155.983 300.799 155.486 301.754 154.361 302.879 152.38 302.879 150.31 302.879 148.966 301.754 148.966 299.515 148.966 297.912 150.837 294.667 156.013 294.667L156.013 292.318C156.013 290.805 155.296 289.879 153.833 289.879 153.087 289.879 152.539 290.118 152.071 290.865 151.653 291.522 151.773 292.059 151.773 293.124 151.554 293.363 151.136 293.542 150.618 293.542 150.091 293.542 149.324 293.124 149.464 291.94 149.633 290.457 151.643 288.814 153.893 288.814 156.979 288.814 158.601 290.297 158.601 292.537 158.601 293.811 158.492 295.244 158.492 297.743 158.492 301.316 158.183 302.232 159.835 301.903 160.134 301.844 160.164 302.172 159.945 302.351 159.427 302.759 158.93 302.909 158.183 302.909M156.013 295.623C152.679 295.623 151.604 297.643 151.604 299.256 151.604 300.211 152.211 301.097 153.226 301.187 154.411 301.276 155.237 300.918 155.983 300.082 155.983 298.688 156.013 297.146 156.013 295.623" fill="#000000" fill-rule="nonzero" fill-opacity="1" transform="matrix(1 0 0 1.00585 508 204.386)"/><path d="M172.168 301.784C171.202 302.59 170.018 302.919 168.644 302.919 166.853 302.919 165.618 302.441 164.434 301.406 164.265 301.256 164.215 301.167 164.245 300.958 164.305 300.48 164.603 299.296 164.852 298.221 164.932 297.892 165.24 298.041 165.27 298.25 165.489 299.853 165.847 300.51 166.624 301.077 167.838 301.973 169.54 302.063 170.565 301.346 171.471 300.719 171.391 299.415 170.983 298.698 170.565 298.012 169.391 297.444 168.425 296.996 165.837 295.812 164.484 295.065 164.484 292.597 164.484 291.193 165.449 290.009 166.793 289.292 167.569 288.874 168.147 288.755 169.023 288.755 170.396 288.755 171.421 289.292 172.188 289.083 172.407 289.023 172.516 288.964 172.546 289.262 172.596 290.009 172.715 291.791 172.795 292.686 172.825 292.955 172.546 293.104 172.387 292.746 172.138 292.238 171.81 291.343 170.735 290.487 169.829 289.77 168.176 289.561 167.241 290.307 166.773 290.696 166.693 291.144 166.693 291.641 166.693 292.985 167.738 293.692 169.829 294.617 171.401 295.304 172.636 295.901 173.243 296.996 174.099 298.599 173.631 300.56 172.168 301.784" fill="#000000" fill-rule="nonzero" fill-opacity="1" transform="matrix(1 0 0 1.00585 508 204.386)"/><path d="M185.993 301.485C185.496 302.083 184.341 302.939 182.798 302.939 180.897 302.939 179.713 301.864 179.713 298.868L179.713 290.536 177.652 290.536 177.732 290.148C177.762 289.969 177.951 289.76 178.14 289.73 180.32 289.402 180.788 287.471 181.305 285.48 181.365 285.271 182.211 285.36 182.211 285.54L182.211 289.023 186.063 289.023C185.924 290.009 185.844 290.536 185.177 290.536L182.201 290.536 182.201 298.121C182.201 301.037 183.057 301.485 184.102 301.485 184.65 301.485 185.227 301.366 185.755 301.097 186.023 300.978 186.212 301.217 185.993 301.485" fill="#000000" fill-rule="nonzero" fill-opacity="1" transform="matrix(1 0 0 1.00585 508 204.386)"/><path d="M190.283 289.939C191.498 289.461 192.842 288.924 193.946 288.566 194.225 288.476 194.245 288.595 194.225 288.864 194.145 290.228 194.086 291.154 194.086 294.07L194.086 297.494C194.086 301.655 194.165 301.754 195.658 301.834 195.469 302.431 195.439 302.64 195.081 302.64L189.955 302.64C190.064 302.013 190.094 301.893 190.423 301.834 191.637 301.625 191.607 301.535 191.607 298.29L191.607 291.482C191.607 290.825 191.418 290.377 190.751 290.377L190.313 290.377C190.015 290.387 189.895 290.088 190.283 289.939M191.03 284.524C191.03 283.519 191.776 282.713 192.712 282.713 193.618 282.713 194.364 283.519 194.364 284.524 194.364 285.54 193.618 286.336 192.712 286.336 191.776 286.346 191.03 285.54 191.03 284.524" fill="#000000" fill-rule="nonzero" fill-opacity="1" transform="matrix(1 0 0 1.00585 508 204.386)"/><path d="M200.386 301.844C201.322 301.665 201.402 301.426 201.402 298.3L201.402 291.372C201.402 291.044 201.183 290.596 200.576 290.596L200.167 290.596C199.809 290.596 199.67 290.327 200.118 290.148 201.332 289.641 202.536 289.043 203.591 288.576 203.781 288.486 203.95 288.605 203.92 288.844 203.87 289.322 203.89 290.805 203.89 291.611 205.244 289.74 206.199 288.785 207.633 288.785 210.36 288.785 211.903 290.745 211.903 293.96L211.903 297.474C211.903 301.635 211.903 301.754 213.276 301.844 213.087 302.441 213.057 302.65 212.699 302.65L207.911 302.65C208.021 302.023 208.051 301.903 208.379 301.844 209.315 301.694 209.424 301.485 209.424 298.718L209.424 296.16C209.424 293.781 209.285 290.686 207.165 290.686 205.712 290.686 205.045 291.283 203.89 292.318L203.89 297.464C203.89 301.625 203.86 301.744 205.294 301.834 205.104 302.431 205.075 302.64 204.716 302.64L199.929 302.64C200.028 302.023 200.058 301.903 200.386 301.844" fill="#000000" fill-rule="nonzero" fill-opacity="1" transform="matrix(1 0 0 1.00585 508 204.386)"/><path d="M229.132 304.641C229.132 306.542 227.779 308.244 225.549 309.279 222.304 310.802 216.959 310.175 216.959 306.691 216.959 304.76 218.532 303.476 220.015 302.879 219.239 302.7 217.974 302.311 217.974 301.008 217.974 299.813 219.189 298.24 219.985 297.673 217.915 296.509 217.536 295.294 217.536 293.453 217.536 291.283 219.079 288.755 222.434 288.755 223.837 288.755 224.414 289.113 224.554 289.143 225.35 288.128 226.425 287.182 227.809 287.421 228.665 287.57 229.322 288.167 229.431 288.755 229.541 289.292 229.212 289.8 228.714 290.357 227.809 289.67 226.564 288.635 225.191 289.461 227.172 290.795 227.5 292.258 227.5 293.503 227.5 295.822 226.047 298.201 222.603 298.201 221.966 298.201 221.06 298.051 220.622 297.902 220.403 298.201 219.985 298.887 219.985 299.654 219.985 300.341 221.249 300.52 221.637 300.55L224.534 300.759C226.873 300.948 229.132 301.933 229.132 304.641M219.418 306.213C219.418 308.951 223.16 309.16 224.952 308.324 226.057 307.816 226.744 306.572 226.744 305.318 226.744 304.213 225.479 303.446 224.016 303.327L220.682 303.028C219.467 304.133 219.418 305.616 219.418 306.213M220.105 293.423C220.105 295.862 221.369 297.146 222.533 297.146 225.201 297.146 224.952 294.169 224.952 293.393 224.952 291.134 223.658 289.82 222.444 289.82 220.353 289.82 220.105 292.139 220.105 293.423" fill="#000000" fill-rule="nonzero" fill-opacity="1" transform="matrix(1 0 0 1.00585 508 204.386)"/><path d="M131.995 27.3127C131.995 27.3127 143.103 2.04049 164.314 0.21898 185.536-1.60253 198.187 8.371 206.627 20.9225 215.068 33.4641 224.395 56.2579 195.967 77.1207 167.529 97.9835 142.128 111.212 132.154 123.863L131.826 123.863C121.852 111.212 96.4506 97.9835 68.0131 77.1207 39.5756 56.2579 48.9022 33.4641 57.3528 20.9225 65.7935 8.38095 78.4445-1.60253 99.6656 0.21898 120.897 2.04049 131.995 27.3127 131.995 27.3127" fill="#000000" fill-rule="nonzero" fill-opacity="1" transform="matrix(1 0 0 1.00585 508 204.386)"/><path d="M48.3049 172.267C48.3049 172.267 20.8728 175.293 8.67956 157.825-3.51363 140.356-1.19444 124.42 5.44463 110.834 12.0937 97.2469 27.1634 77.7776 59.453 91.9715 91.7426 106.165 115.9 121.544 131.836 123.863L131.995 124.142C126.033 139.102 127.267 167.719 123.415 202.775 119.563 237.832 95.1666 241.146 80.0769 240.111 64.9872 239.066 50.0269 233.104 40.999 213.814 31.971 194.524 48.3049 172.267 48.3049 172.267" fill="#000000" fill-rule="nonzero" fill-opacity="1" transform="matrix(1 0 0 1.00585 508 204.386)"/><path d="M215.695 172.267C215.695 172.267 232.029 194.524 223.001 213.804 213.973 233.094 199.003 239.056 183.913 240.101 168.823 241.146 144.427 237.822 140.575 202.765 136.723 167.709 137.967 139.092 131.995 124.132L132.154 123.853C148.09 121.544 172.257 106.155 204.537 91.9615 236.817 77.7677 251.896 97.237 258.535 110.824 265.175 124.41 267.494 140.356 255.301 157.815 243.127 175.293 215.695 172.267 215.695 172.267" fill="#000000" fill-rule="nonzero" fill-opacity="1" transform="matrix(1 0 0 1.00585 508 204.386)"/><path d="M131.398 124.181 131.925 123.783 132.164 123.853 132.343 124.261 131.995 124.142Z" fill="#000000" fill-rule="nonzero" fill-opacity="1" transform="matrix(1 0 0 1.00585 508 204.386)"/><path d="M131.249 123.992 131.249 125.376 131.537 125.376C131.617 125.187 131.776 125.047 131.995 125.047 132.224 125.047 132.373 125.197 132.453 125.376L132.742 125.376 132.742 123.992 131.249 123.992Z" fill="#000000" fill-rule="nonzero" fill-opacity="1" transform="matrix(1 0 0 1.00585 508 204.386)"/><path d="M132.373 124.58 133.578 123.883 133.428 123.634C133.229 123.654 133.02 123.594 132.911 123.405 132.801 123.206 132.851 122.997 132.97 122.838L132.821 122.589 131.617 123.286 132.373 124.58Z" fill="#000000" fill-rule="nonzero" fill-opacity="1" transform="matrix(1 0 0 1.00585 508 204.386)"/><path d="M132.314 123.256 131.109 122.559 130.96 122.808C131.079 122.967 131.129 123.176 131.02 123.375 130.91 123.574 130.701 123.634 130.502 123.604L130.353 123.853 131.557 124.55 132.314 123.256Z" fill="#000000" fill-rule="nonzero" fill-opacity="1" transform="matrix(1 0 0 1.00585 508 204.386)"/></g></svg>