<?xml version="1.0" encoding="utf-8"?>
<!-- Generator: Adobe Illustrator 27.0.0, SVG Export Plug-In . SVG Version: 6.00 Build 0)  -->
<svg version="1.1" id="圖層_1" xmlns="http://www.w3.org/2000/svg" xmlns:xlink="http://www.w3.org/1999/xlink" x="0px" y="0px"
	 viewBox="0 0 265.23 311.5" style="enable-background:new 0 0 265.23 311.5;" xml:space="preserve">
<g>
	<path d="M41.12,283.02c-0.14,0.75-0.22,0.93-0.58,0.96c-1.22,0.09-1.36,0.06-1.36,3.88v14.26c0,0.27,0.03,0.48,0.42,0.51
		c0.64,0.06,2.02,0.12,3.07,0.06c4.2-0.24,4.51-1.11,5.67-3.83c0.14-0.33,0.66-0.18,0.55,0.21l-1.3,4.84
		c-0.06,0.18-0.14,0.33-0.5,0.3c-0.8-0.06-2.27-0.15-4.34-0.15h-7.3c-0.33,0-0.44-0.27-0.08-0.45c1-0.48,1.16-0.75,1.16-4.18v-10.94
		c0-4.45-0.05-4.39-1.49-4.51c-0.36-0.03-0.39-0.39-0.28-0.96H41.12z"/>
	<path d="M52.95,297.18c0-3.89,2.63-7.14,6.34-7.14c3.65,0,6.06,3.02,6.06,7.14c0,3.88-2.6,7.14-6.31,7.14
		C55.03,304.32,52.95,301.01,52.95,297.18 M62.67,297.6c0-3.2-1.38-6.43-3.76-6.43c-2.55,0-3.29,2.39-3.29,5.59
		c0,3.14,1.36,6.4,3.6,6.4C61.86,303.16,62.67,301.07,62.67,297.6"/>
	<path d="M68.91,291.14c0.11-0.6,0.17-0.78,0.53-0.78h4.98c-0.22,0.63-0.25,0.78-0.53,0.78c-1.16,0-1.16,0.27-0.69,1.47l3.15,8.25
		l3.1-8.25c0.5-1.29,0.22-1.47-1.22-1.47c0.11-0.6,0.19-0.78,0.55-0.78h3.6c-0.19,0.63-0.33,0.78-0.61,0.78
		c-0.5,0-0.66,0.27-0.94,0.99l-4.57,11.83c-0.17,0.45-0.61,0.42-1.22,0.39l-4.65-11.86C69.99,291.44,69.88,291.17,68.91,291.14"/>
	<path d="M88.39,296.85c-0.03,3.2,1.61,5.74,4.15,5.74c1.63,0,2.52-0.66,3.4-1.43c0.28-0.24,0.47-0.03,0.33,0.3
		c-0.53,1.17-1.99,2.9-4.57,2.9c-3.43,0-5.95-2.42-5.95-7.05c0-3.53,2.6-7.2,5.59-7.2c2.35,0,3.21,0.78,3.9,1.49
		c0.8,0.84,1.27,2.24,1.41,4.01c0.06,0.72,0,1.02-0.64,1.05C92.79,296.79,90.3,296.76,88.39,296.85 M94,295.36
		c0-2.33-0.91-4.18-2.57-4.18c-1.88,0-3.07,2.06-3.07,4.66L94,295.36z"/>
	<path d="M113.31,303.1c1.24-0.3,1.3-0.33,1.3-4.45v-10.22c0-3.89-0.03-3.92-0.88-4.21c-0.61-0.21-0.75-0.39-0.72-1.2
		c1.91,0.36,4.32,0.03,6.78,0c4.73-0.06,7.17,3.08,7.17,5.71c0,2.87-2.24,5.41-5.73,5.77c3.68,3.17,4.26,7.2,7.75,9.09
		c0.39,0.21,0.41,0.48-0.06,0.48c-1.8,0-3.38,0.33-4.7-1.29c-2.21-2.69-3.24-6.46-6.17-8.73c-0.19-0.15-0.17-0.45,0.08-0.45
		c3.96,0,6.14-1.4,5.98-4.72c-0.16-3.17-2.16-5.14-6.83-4.15v13.24c0,4.96,0,4.99,2.27,5.14c-0.22,0.78-0.36,0.96-0.75,0.96h-6.06
		C112.84,303.34,112.92,303.19,113.31,303.1"/>
	<path d="M132.53,297.18c0-3.89,2.63-7.14,6.33-7.14c3.65,0,6.06,3.02,6.06,7.14c0,3.88-2.6,7.14-6.31,7.14
		C134.61,304.32,132.53,301.01,132.53,297.18 M142.24,297.6c0-3.2-1.38-6.43-3.76-6.43c-2.55,0-3.29,2.39-3.29,5.59
		c0,3.14,1.36,6.4,3.6,6.4C141.44,303.16,142.24,301.07,142.24,297.6"/>
	<path d="M158.92,304.32c-1.1,0-2.27-0.27-2.21-2.12c-0.5,0.96-1.63,2.09-3.62,2.09c-2.08,0-3.43-1.13-3.43-3.38
		c0-1.61,1.88-4.87,7.08-4.87v-2.36c0-1.52-0.72-2.45-2.19-2.45c-0.75,0-1.3,0.24-1.77,0.99c-0.42,0.66-0.3,1.2-0.3,2.27
		c-0.22,0.24-0.64,0.42-1.16,0.42c-0.53,0-1.3-0.42-1.16-1.61c0.17-1.49,2.19-3.14,4.45-3.14c3.1,0,4.73,1.49,4.73,3.74
		c0,1.28-0.11,2.72-0.11,5.23c0,3.59-0.31,4.51,1.35,4.18c0.3-0.06,0.33,0.27,0.11,0.45C160.17,304.17,159.67,304.32,158.92,304.32
		 M156.74,297c-3.35,0-4.43,2.03-4.43,3.65c0,0.96,0.61,1.85,1.63,1.94c1.19,0.09,2.02-0.27,2.77-1.11
		C156.71,300.08,156.74,298.53,156.74,297"/>
	<path d="M172.97,303.19c-0.97,0.81-2.16,1.14-3.54,1.14c-1.8,0-3.04-0.48-4.23-1.52c-0.17-0.15-0.22-0.24-0.19-0.45
		c0.06-0.48,0.36-1.67,0.61-2.75c0.08-0.33,0.39-0.18,0.42,0.03c0.22,1.61,0.58,2.27,1.36,2.84c1.22,0.9,2.93,0.99,3.96,0.27
		c0.91-0.63,0.83-1.94,0.42-2.66c-0.42-0.69-1.6-1.26-2.57-1.71c-2.6-1.19-3.96-1.94-3.96-4.42c0-1.41,0.97-2.6,2.32-3.32
		c0.78-0.42,1.36-0.54,2.24-0.54c1.38,0,2.41,0.54,3.18,0.33c0.22-0.06,0.33-0.12,0.36,0.18c0.05,0.75,0.17,2.54,0.25,3.44
		c0.03,0.27-0.25,0.42-0.41,0.06c-0.25-0.51-0.58-1.41-1.66-2.27c-0.91-0.72-2.57-0.93-3.51-0.18c-0.47,0.39-0.55,0.84-0.55,1.34
		c0,1.35,1.05,2.06,3.15,2.99c1.58,0.69,2.82,1.29,3.43,2.39C174.91,299.99,174.44,301.96,172.97,303.19"/>
	<path d="M186.86,302.89c-0.5,0.6-1.66,1.46-3.21,1.46c-1.91,0-3.1-1.08-3.1-4.09v-8.37h-2.07l0.08-0.39
		c0.03-0.18,0.22-0.39,0.41-0.42c2.19-0.33,2.66-2.27,3.18-4.27c0.06-0.21,0.91-0.12,0.91,0.06v3.5h3.87
		c-0.14,0.99-0.22,1.52-0.89,1.52h-2.99v7.62c0,2.93,0.86,3.38,1.91,3.38c0.55,0,1.13-0.12,1.66-0.39
		C186.89,302.38,187.08,302.62,186.86,302.89"/>
	<path d="M191.17,291.29c1.22-0.48,2.57-1.02,3.68-1.38c0.28-0.09,0.3,0.03,0.28,0.3c-0.08,1.37-0.14,2.3-0.14,5.23v3.44
		c0,4.18,0.08,4.28,1.58,4.36c-0.19,0.6-0.22,0.81-0.58,0.81h-5.15c0.11-0.63,0.14-0.75,0.47-0.81c1.22-0.21,1.19-0.3,1.19-3.56
		v-6.84c0-0.66-0.19-1.11-0.86-1.11h-0.44C190.9,291.74,190.78,291.44,191.17,291.29 M191.92,285.85c0-1.01,0.75-1.82,1.69-1.82
		c0.91,0,1.66,0.81,1.66,1.82c0,1.02-0.75,1.82-1.66,1.82C192.67,287.68,191.92,286.87,191.92,285.85"/>
	<path d="M201.32,303.25c0.94-0.18,1.02-0.42,1.02-3.56v-6.96c0-0.33-0.22-0.78-0.83-0.78h-0.41c-0.36,0-0.5-0.27-0.05-0.45
		c1.22-0.51,2.43-1.11,3.49-1.58c0.19-0.09,0.36,0.03,0.33,0.27c-0.05,0.48-0.03,1.97-0.03,2.78c1.36-1.88,2.32-2.84,3.76-2.84
		c2.74,0,4.29,1.97,4.29,5.2v3.53c0,4.18,0,4.3,1.38,4.39c-0.19,0.6-0.22,0.81-0.58,0.81h-4.81c0.11-0.63,0.14-0.75,0.47-0.81
		c0.94-0.15,1.05-0.36,1.05-3.14v-2.57c0-2.39-0.14-5.5-2.27-5.5c-1.46,0-2.13,0.6-3.29,1.64v5.17c0,4.18-0.03,4.3,1.41,4.39
		c-0.19,0.6-0.22,0.81-0.58,0.81h-4.81C200.96,303.43,200.99,303.31,201.32,303.25"/>
	<path d="M230.2,306.06c0,1.91-1.36,3.62-3.6,4.66c-3.26,1.53-8.63,0.9-8.63-2.6c0-1.94,1.58-3.23,3.07-3.83
		c-0.78-0.18-2.05-0.57-2.05-1.88c0-1.2,1.22-2.78,2.02-3.35c-2.08-1.17-2.46-2.39-2.46-4.24c0-2.18,1.55-4.72,4.92-4.72
		c1.41,0,1.99,0.36,2.13,0.39c0.8-1.02,1.88-1.97,3.27-1.73c0.86,0.15,1.52,0.75,1.63,1.34c0.11,0.54-0.22,1.05-0.72,1.61
		c-0.91-0.69-2.16-1.73-3.54-0.9c1.99,1.34,2.32,2.81,2.32,4.06c0,2.33-1.46,4.72-4.92,4.72c-0.64,0-1.55-0.15-1.99-0.3
		c-0.22,0.3-0.64,0.99-0.64,1.76c0,0.69,1.27,0.87,1.66,0.9l2.91,0.21C227.93,302.35,230.2,303.34,230.2,306.06 M220.44,307.64
		c0,2.75,3.76,2.96,5.56,2.12c1.11-0.51,1.8-1.76,1.8-3.02c0-1.11-1.27-1.88-2.74-2l-3.35-0.3
		C220.49,305.55,220.44,307.04,220.44,307.64 M221.13,294.79c0,2.45,1.27,3.74,2.44,3.74c2.68,0,2.43-2.99,2.43-3.77
		c0-2.27-1.3-3.59-2.52-3.59C221.38,291.17,221.13,293.5,221.13,294.79"/>
	<path d="M132.61,27.44c0,0,11.16-25.39,32.47-27.22c21.32-1.83,34.03,8.19,42.51,20.8c8.48,12.6,17.85,35.5-10.71,56.46
		c-28.57,20.96-54.09,34.25-64.11,46.96h-0.33c-10.02-12.71-35.54-26-64.11-46.96c-28.57-20.96-19.2-43.86-10.71-56.46
		c8.48-12.6,21.19-22.63,42.51-20.8C121.46,2.05,132.61,27.44,132.61,27.44"/>
	<path d="M48.53,173.07c0,0-27.56,3.04-39.81-14.51c-12.25-17.55-9.92-33.56-3.25-47.21C12.15,97.7,27.29,78.14,59.73,92.4
		c32.44,14.26,56.71,29.71,72.72,32.04l0.16,0.28c-5.99,15.03-4.75,43.78-8.62,79c-3.87,35.22-28.38,38.55-43.54,37.51
		c-15.16-1.05-30.19-7.04-39.26-26.42C32.12,195.43,48.53,173.07,48.53,173.07"/>
	<path d="M216.7,173.07c0,0,16.41,22.36,7.34,41.73c-9.07,19.38-24.11,25.37-39.27,26.42c-15.16,1.05-39.67-2.29-43.54-37.51
		c-3.87-35.22-2.62-63.97-8.62-79l0.16-0.28c16.01-2.32,40.29-17.78,72.72-32.04c32.43-14.26,47.58,5.3,54.25,18.95
		c6.67,13.65,9,29.67-3.25,47.21C244.26,176.11,216.7,173.07,216.7,173.07"/>
	<polygon points="132.01,124.76 132.54,124.36 132.78,124.43 132.96,124.84 132.61,124.72 	"/>
	<path d="M131.86,124.57v1.39h0.29c0.08-0.19,0.24-0.33,0.46-0.33c0.23,0,0.38,0.15,0.46,0.33h0.29v-1.39H131.86z"/>
	<path d="M132.99,125.16l1.21-0.7l-0.15-0.25c-0.2,0.02-0.41-0.04-0.52-0.23c-0.11-0.2-0.06-0.41,0.06-0.57l-0.15-0.25l-1.21,0.7
		L132.99,125.16z"/>
	<path d="M132.93,123.83l-1.21-0.7l-0.15,0.25c0.12,0.16,0.17,0.37,0.06,0.57c-0.11,0.2-0.32,0.26-0.52,0.23l-0.15,0.25l1.21,0.7
		L132.93,123.83z"/>
</g>
</svg>
